# xmcd CD database file
#
# Track frame offsets:
#	150
#	19102
#	56610
#	74007
#	90112
#	117100
#	135237
#	149322
#	164852
#	181182
#	198375
#	229967
#	245477
#	266407
#	291875
#	324550
#	342880
#
# Disc length: 4736 seconds
#
# Revision: 0
# Processed by: cddbd v1.5PL3 Copyright (c) Steve Scherf et al.
# Submitted via: CDex 1.40Beta9
#
DISCID=f8127e11
DTITLE=Mike Bloomfield - Red Hot and Blue
DYEAR=1981
DGENRE=Blues
TTITLE0=Eyesight To The Blind
TTITLE1=Woman Lovin' Each Other
TTITLE2=Linda Lou
TTITLE3=Kansas City
TTITLE4=Blues In B-Flat
TTITLE5=Medley: Darktown Strutter's Ball/Mop Mop/Call Me A Dog
TTITLE6=I'm Glad I'm Jewish
TTITLE7=Great Gifts From Heaven
TTITLE8=Lo, Thought I Am With Thee
TTITLE9=Jockey Blues
TTITLE10=Between The Hard Place And The Ground
TTITLE11=Don't Lie To Me
TTITLE12=Cherry Red
TTITLE13=Uncle Bob's Barrelhouse Bluses
TTITLE14=Wee Wee Hours
TTITLE15=Vamp In C
TTITLE16=One Of These Days
EXTD=YEAR: 1981 ID3G: 0
EXTT0=
EXTT1=
EXTT2=
EXTT3=
EXTT4=
EXTT5=
EXTT6=
EXTT7=
EXTT8=
EXTT9=
EXTT10=
EXTT11=
EXTT12=
EXTT13=
EXTT14=
EXTT15=
EXTT16=
PLAYORDER=
